<?xml version="1.0" encoding="UTF-8" standalone="no"?>
<!-- Created with Inkscape (http://www.inkscape.org/) -->

<svg
   width="414.85483"
   height="415.13574"
   viewBox="0 0 414.85483 415.13574"
   version="1.1"
   id="svg5"
   inkscape:version="1.1.2 (b8e25be833, 2022-02-05)"
   sodipodi:docname="gastly-nube.svg"
   xmlns:inkscape="http://www.inkscape.org/namespaces/inkscape"
   xmlns:sodipodi="http://sodipodi.sourceforge.net/DTD/sodipodi-0.dtd"
   xmlns="http://www.w3.org/2000/svg"
   xmlns:svg="http://www.w3.org/2000/svg">
  <sodipodi:namedview
     id="namedview7"
     pagecolor="#ffffff"
     bordercolor="#666666"
     borderopacity="1.0"
     inkscape:pageshadow="2"
     inkscape:pageopacity="0.0"
     inkscape:pagecheckerboard="0"
     inkscape:document-units="px"
     showgrid="false"
     inkscape:zoom="1.6926369"
     inkscape:cx="204.41479"
     inkscape:cy="228.93274"
     inkscape:window-width="1362"
     inkscape:window-height="1080"
     inkscape:window-x="-1920"
     inkscape:window-y="185"
     inkscape:window-maximized="0"
     inkscape:current-layer="layer1" />
  <defs
     id="defs2">
    <marker
       style="overflow:visible"
       id="Arrow2Lend"
       refX="0"
       refY="0"
       orient="auto"
       inkscape:stockid="Arrow2Lend"
       inkscape:isstock="true">
      <path
         transform="matrix(-1.1,0,0,-1.1,-1.1,0)"
         d="M 8.7185878,4.0337352 -2.2072895,0.01601326 8.7185884,-4.0017078 c -1.7454984,2.3720609 -1.7354408,5.6174519 -6e-7,8.035443 z"
         style="fill:context-stroke;fill-rule:evenodd;stroke:context-stroke;stroke-width:0.625;stroke-linejoin:round"
         id="path9009" />
    </marker>
    <marker
       inkscape:stockid="DistanceStart"
       orient="auto"
       refY="0"
       refX="0"
       id="DistanceStart"
       style="overflow:visible"
       inkscape:isstock="true">
      <g
         id="g2300">
        <path
           id="path2306"
           d="M 0,0 H 2"
           style="fill:none;stroke:context-fill;stroke-width:1.15;stroke-linecap:square" />
        <path
           id="path2302"
           d="M 0,0 13,4 9,0 13,-4 Z"
           style="fill:context-stroke;fill-rule:evenodd;stroke:none" />
        <path
           id="path2304"
           d="M 0,-4 V 40"
           style="fill:none;stroke:context-stroke;stroke-width:1;stroke-linecap:square" />
      </g>
    </marker>
  </defs>
  <g
     inkscape:label="Capa 1"
     inkscape:groupmode="layer"
     id="layer1"
     transform="translate(-1553.0853,-414.63307)">
    <path
       style="fill:none;stroke:#343030;stroke-width:4;stroke-linecap:butt;stroke-linejoin:miter;stroke-miterlimit:4;stroke-dasharray:none;stroke-opacity:1"
       d="m 1760,797.07572 5.4308,16.29243 12.1149,1.25326 12.1149,12.95039 30.9138,-12.95039 1.671,-25.06527 15.8747,-17.54569 11.6971,2.92428 10.4439,-8.77285 -0.4178,-19.63446 7.5196,-4.5953 14.2037,7.51958 12.5326,-2.08877 -0.4177,-8.3551 14.2036,-4.5953 10.4439,-27.5718 -5.4308,-7.93733 v -24.64752 l 14.6214,-9.1906 -0.4178,-20.46998 -25.0652,0.41776 -4.1776,16.29242 -7.5196,2.92429 -11.6971,-10.02611 v -26.7363 l 11.6971,-8.77284 5.8486,3.34203 3.342,-2.08877 0.4178,-14.20365 20.0522,-24.22977 -22.141,-30.91384 -11.6971,-5.01305 v -9.1906 l 12.1149,-3.34204 h 13.7859 l 1.671,-11.27937 4.5953,-8.35509 -12.1149,-24.64752 -18.3812,4.5953 -10.0261,-6.26632 -17.1279,15.87467 -0.8356,14.20366 8.3551,7.10183 -0.8355,10.44386 -18.7989,10.02611 -21.3055,-13.7859 12.5326,-30.07833 -25.9008,-28.40731 -30.9138,0.41775 -3.342,14.20366 -25.9008,10.44386 -20.8877,-10.44386 -0.4178,-13.36815 7.9373,-7.51958 10.4439,6.26632 2.5065,-1.67102 1.671,-21.72324 6.2664,-4.17754 0.4177,-2.50653 -21.7232,-21.72324 -11.6971,9.60836 -29.2429,-15.03917 -20.4699,21.30549 0.4177,12.11488 -20.8877,16.71018 -15.0392,5.43081 1.2533,17.12794 -6.6841,16.71018 -28.4073,7.51958 -7.9373,-8.35509 h -1.6711 l -10.8616,29.66058 -22.141,7.93733 11.6972,31.3316 11.2793,0.41775 5.4308,12.11488 -7.5195,10.44387 -7.9374,-3.34204 -11.2793,20.05222 1.2532,21.72324 5.8486,8.35509 12.5326,0.41775 0.4178,20.88773 -9.6084,-0.41775 -4.5953,-7.10183 -12.9504,8.77285 -7.5196,27.5718 25.0653,35.92689 35.5092,5.01305 8.355,14.20366 -7.5195,15.45692 9.1906,20.46997 20.0522,1.25327 11.2794,6.68407 5.4308,15.03916 33.0026,4.5953 24.6475,-14.20365 6.2663,0.83551 4.5953,0.41775 h 4.1776 4.1775 l 5.0131,-0.41775 h 4.5953 l 4.1775,-0.83551 h 2.9243 l 3.342,-0.83551 h 0.8355 z"
       id="path54" />
    <path
       style="fill:none;stroke:#343030;stroke-width:4;stroke-linecap:butt;stroke-linejoin:miter;stroke-miterlimit:4;stroke-dasharray:none;stroke-opacity:1"
       d="m 1833.9426,815.87467 15.4569,-6.26631 -1.2533,19.63446 -15.4569,-0.83551 z"
       id="path89" />
    <path
       style="fill:none;stroke:#343030;stroke-width:4;stroke-linecap:butt;stroke-linejoin:miter;stroke-miterlimit:4;stroke-dasharray:none;stroke-opacity:1"
       d="m 1771.6971,418.59008 0.4178,17.12794 4.5953,12.53263 19.2167,1.67102 5.8486,-10.02611 15.8746,0.83551 7.1019,-19.21671 -7.5196,-4.5953 -14.6214,11.27937 h -6.6841 l -10.8616,-11.69712 z"
       id="path93" />
    <path
       style="fill:none;stroke:#343030;stroke-width:4;stroke-linecap:butt;stroke-linejoin:miter;stroke-miterlimit:4;stroke-dasharray:none;stroke-opacity:1"
       d="m 1589.5561,481.25326 -0.4177,12.53264 5.4308,2.50653 11.6971,0.41775 2.5065,-2.08877 0.4178,-12.11488 z"
       id="path95" />
    <path
       style="fill:none;stroke:#343030;stroke-width:4;stroke-linecap:butt;stroke-linejoin:miter;stroke-miterlimit:4;stroke-dasharray:none;stroke-opacity:1"
       d="m 1564.4909,506.73629 0.8355,10.02611 h 16.2924 l 0.8355,-8.77284 z"
       id="path97" />
    <path
       style="font-variation-settings:normal;opacity:1;fill:#826e9c;fill-opacity:1;stroke:#343030;stroke-width:4;stroke-linecap:butt;stroke-linejoin:miter;stroke-miterlimit:4;stroke-dasharray:none;stroke-dashoffset:0;stroke-opacity:1;stop-color:#000000;stop-opacity:1"
       d="m 1783.8883,820.27808 c -6.4725,-6.99762 -5.0929,-6.26554 -13.4361,-7.12979 -2.2931,-0.23753 -4.2905,-0.56722 -4.4387,-0.73264 -0.1482,-0.16542 -1.4409,-3.83871 -2.8726,-8.16287 -3.0326,-9.15898 -2.931,-9.04519 -7.4228,-8.31459 -6.4879,1.05527 -9.4986,1.33245 -17.2325,1.58653 -5.0698,0.16656 -9.6449,0.0933 -12.1148,-0.19387 -9.1957,-1.06932 -6.5231,-1.87445 -20.3663,6.13524 -8.3281,4.81857 -12.5192,7.02006 -13.1593,6.91214 -0.5166,-0.0871 -7.6937,-1.09121 -15.9493,-2.23137 -8.2555,-1.14015 -15.1367,-2.21768 -15.2916,-2.39452 -0.1549,-0.17684 -1.4379,-3.50895 -2.8512,-7.40468 -1.4132,-3.89573 -2.7095,-7.21066 -2.8806,-7.36651 -0.1711,-0.15585 -2.7787,-1.72546 -5.7946,-3.48801 l -5.4835,-3.20464 -9.7646,-0.63339 c -5.3705,-0.34837 -9.8949,-0.76106 -10.0543,-0.9171 -0.4777,-0.46758 -8.6919,-18.96627 -8.6919,-19.57441 0,-0.30905 1.5979,-3.75356 3.5509,-7.65446 1.953,-3.9009 3.5509,-7.31751 3.5509,-7.59246 0,-0.27495 -1.8972,-3.74957 -4.216,-7.72137 -3.8429,-6.58249 -4.3327,-7.24151 -5.5352,-7.44801 -0.7256,-0.12459 -8.7399,-1.26849 -17.8096,-2.542 -9.0696,-1.27351 -16.517,-2.35177 -16.5498,-2.39615 -3.9214,-5.312 -24.4012,-35.18091 -24.4012,-35.58824 0,-0.56076 7.0459,-26.65151 7.2258,-26.75718 0.047,-0.0274 2.7618,-1.87658 6.0335,-4.10925 l 5.9485,-4.05939 2.0969,3.30283 2.0969,3.30284 2.8162,0.26597 c 1.5489,0.14629 4.0212,0.26731 5.4939,0.26894 l 2.6778,0.003 -0.2647,-10.92023 c -0.1455,-6.00612 -0.3322,-10.98778 -0.4147,-11.07035 -0.083,-0.0826 -2.9556,-0.27155 -6.3844,-0.41996 l -6.2343,-0.26984 -2.8138,-4.01229 c -1.9204,-2.73834 -2.8188,-4.41021 -2.8294,-5.26555 -0.01,-0.6893 -0.2796,-5.38904 -0.6022,-10.44387 l -0.5865,-9.1906 5.4388,-9.71279 c 2.9914,-5.34204 5.5018,-9.71279 5.5787,-9.71279 0.077,0 1.7,0.65796 3.6068,1.46214 1.9068,0.80418 3.676,1.46214 3.9317,1.46214 0.5056,0 7.7201,-9.77802 7.9977,-10.83953 0.094,-0.35767 -1.0775,-3.40579 -2.6022,-6.7736 l -2.7722,-6.12328 -4.4557,-0.26587 c -2.4506,-0.14622 -5.0062,-0.30422 -5.6791,-0.35111 -1.2136,-0.0846 -1.2682,-0.20534 -6.8132,-15.06493 -3.0743,-8.23882 -5.5316,-15.02765 -5.4606,-15.08628 0.071,-0.0586 4.9013,-1.81843 10.734,-3.91065 5.8326,-2.09223 10.682,-3.88119 10.7763,-3.97548 0.094,-0.0943 2.5354,-6.63281 5.4248,-14.53004 2.8894,-7.89723 5.4307,-14.54659 5.6474,-14.77636 0.2554,-0.27088 1.8164,1.09303 4.4402,3.87955 2.2255,2.36352 4.2605,4.29041 4.5223,4.28199 0.2618,-0.008 6.1835,-1.52852 13.1593,-3.37798 6.9758,-1.84946 13.3693,-3.5435 14.2077,-3.76453 l 1.5243,-0.40187 3.4307,-8.56514 3.4308,-8.56514 -0.4853,-7.20036 c -0.2669,-3.96019 -0.5228,-7.74534 -0.5687,-8.41144 -0.083,-1.20164 -0.027,-1.23137 7.0875,-3.81575 3.944,-1.43258 7.5308,-2.86148 7.9707,-3.17534 0.4399,-0.31387 5.2724,-4.14248 10.739,-8.50801 l 9.9391,-7.93734 -0.2236,-6.05744 -0.2237,-6.05744 3.0007,-3.13316 c 1.6504,-1.72324 6.1316,-6.39464 9.9581,-10.3809 l 6.9574,-7.24775 14.3894,7.35219 c 7.9142,4.0437 14.5552,7.3517 14.7578,7.35112 0.2026,-5.9e-4 2.9024,-2.071 5.9995,-4.60092 l 5.631,-4.59985 10.492,10.48598 c 8.3947,8.38982 10.4574,10.66737 10.3186,11.39342 -0.1092,0.57151 -1.3129,1.65305 -3.2513,2.9215 -3.0634,2.00468 -3.0789,2.02412 -3.3144,4.17355 -0.2656,2.42485 -1.4861,18.13612 -1.4861,19.13113 0,0.35296 -0.4497,0.88242 -0.9993,1.17657 -0.917,0.49077 -1.4142,0.28672 -6.0371,-2.47753 -2.7708,-1.65679 -5.2194,-2.94663 -5.4414,-2.86631 -0.2219,0.0803 -2.205,1.80589 -4.4067,3.83462 l -4.0032,3.6886 v 3.83099 c 0,2.10704 0.1224,5.37111 0.2689,7.25348 l 0.2665,3.4225 10.5252,5.24591 c 5.7889,2.88525 10.717,5.2459 10.9514,5.2459 0.4457,0 26.0188,-10.29619 26.3193,-10.59663 0.095,-0.0949 0.8885,-3.2071 1.7638,-6.91609 0.8752,-3.70899 1.6636,-6.80552 1.752,-6.88118 0.089,-0.0757 6.8344,-0.25673 14.9911,-0.40235 l 14.8303,-0.26477 12.5306,13.77762 c 6.8918,7.5777 12.5838,13.93728 12.6488,14.1324 0.065,0.19512 -2.6129,6.90606 -5.9509,14.9132 -3.3381,8.00714 -6.0692,14.77922 -6.0692,15.04907 0,0.42616 20.0167,13.66924 21.5504,14.25778 0.3147,0.12074 4.8795,-2.06032 10.1441,-4.84682 l 9.5719,-5.06636 0.2358,-1.76331 c 0.1297,-0.96982 0.3571,-3.54996 0.5054,-5.73364 l 0.2695,-3.97033 -4.228,-3.54925 -4.228,-3.54926 0.2012,-1.87989 c 0.1106,-1.03395 0.3184,-4.04831 0.4618,-6.69859 l 0.2607,-4.8187 6.5105,-6.04292 c 3.5808,-3.32361 7.3168,-6.75705 8.3023,-7.62988 l 1.7918,-1.58695 4.7145,2.94466 c 2.593,1.61956 4.9575,2.94465 5.2544,2.94465 0.2969,0 4.2859,-0.93995 8.8644,-2.08877 4.5785,-1.14883 8.4751,-2.08878 8.6591,-2.08878 0.184,0 2.9637,5.26916 6.1772,11.70924 l 5.8426,11.70924 -2.2169,4.15666 c -2.0334,3.81277 -2.284,4.59421 -3.0287,9.44549 -0.4465,2.90886 -0.8119,5.35668 -0.8119,5.43959 0,0.0829 -3.0566,0.15075 -6.7926,0.15075 -6.4748,0 -7.0464,0.0691 -12.2193,1.47741 -2.9847,0.81258 -5.7557,1.57721 -6.1578,1.69917 -0.6446,0.19555 -0.731,0.82962 -0.731,5.3642 v 5.14244 l 5.953,2.57728 5.953,2.57728 10.6527,14.87851 c 5.859,8.18319 10.7032,14.99959 10.765,15.14757 0.062,0.14798 -4.2817,5.58038 -9.652,12.07201 l -9.7643,11.80297 -0.2696,3.79919 c -0.1483,2.08956 -0.2697,5.32548 -0.2697,7.19094 v 3.39174 l -1.4208,0.76517 -1.4209,0.76517 -2.7844,-1.55714 c -2.0349,-1.13795 -2.9867,-1.45895 -3.5356,-1.19237 -0.4131,0.20063 -3.2205,2.24379 -6.2386,4.54036 l -5.4874,4.17559 v 13.82048 13.82049 l 5.8513,4.98043 c 3.2182,2.73924 6.0432,5.04483 6.2779,5.12354 0.2346,0.0787 2.2074,-0.54688 4.3839,-1.39021 3.3787,-1.30914 3.9974,-1.69653 4.2318,-2.64963 1.2839,-5.22017 3.8121,-14.73746 3.9453,-14.85208 0.091,-0.0787 5.4769,-0.26019 11.9677,-0.40341 l 11.8016,-0.26038 v 5.111 c 0,2.81105 0.113,7.17889 0.2488,9.7063 l 0.2469,4.5953 -7.3506,4.53305 -7.3509,4.53305 v 12.83661 12.83662 l 2.5066,3.59244 c 1.3786,1.97584 2.5065,3.80278 2.5065,4.05986 0,0.81834 -9.6714,26.09996 -10.1724,26.59112 -0.2642,0.25905 -3.5597,1.44728 -7.3233,2.6405 l -6.8429,2.16951 0.1994,4.14106 0.1994,4.14107 -1.2938,0.23559 c -0.7116,0.12958 -3.2677,0.57373 -5.6802,0.987 l -4.3865,0.75141 -7.3439,-3.78488 -7.3439,-3.78488 -4.1036,2.48272 -4.1035,2.48273 0.2477,9.82601 0.2477,9.82602 -4.2571,3.58771 c -6.1838,5.21135 -5.1616,4.90622 -11.2923,3.37092 -2.8967,-0.72542 -5.5172,-1.31895 -5.8233,-1.31895 -0.447,0 -11.57,11.91077 -15.6765,16.78668 -0.9082,1.07832 -1.0109,1.84178 -1.7993,13.37949 -0.4599,6.72976 -0.9665,12.36188 -1.1257,12.51582 -0.3372,0.32608 -29.2416,12.46376 -29.6653,12.45722 -0.1566,-0.002 -2.8822,-2.81264 -6.057,-6.24494 z"
       id="path6692" />
    <path
       style="font-variation-settings:normal;opacity:1;fill:#826e9c;fill-opacity:1;stroke:#343030;stroke-width:4;stroke-linecap:butt;stroke-linejoin:miter;stroke-miterlimit:4;stroke-dasharray:none;stroke-dashoffset:0;stroke-opacity:1;stop-color:#000000;stop-opacity:1"
       d="m 1598.329,495.69412 c -3.4639,-0.19768 -4.5499,-0.43459 -6.3571,-1.38675 l -2.1796,-1.14835 0.2532,-5.53512 c 0.1392,-3.04432 0.2741,-5.55545 0.2996,-5.58028 0.026,-0.0248 3.7123,0.2012 8.1928,0.50231 4.4804,0.30111 8.5555,0.55641 9.0557,0.56735 0.8994,0.0197 0.9069,0.0813 0.6768,5.55513 -0.2239,5.3259 -0.2741,5.57023 -1.3273,6.46017 -1.1741,0.99217 -1.1574,0.99107 -8.6141,0.56554 z"
       id="path6731" />
    <path
       style="font-variation-settings:normal;opacity:1;fill:#826e9c;fill-opacity:1;stroke:#343030;stroke-width:4;stroke-linecap:butt;stroke-linejoin:miter;stroke-miterlimit:4;stroke-dasharray:none;stroke-dashoffset:0;stroke-opacity:1;stop-color:#000000;stop-opacity:1"
       d="m 1565.7653,512.89817 c -0.1424,-1.78068 -0.3409,-3.75021 -0.441,-4.37673 -0.178,-1.11356 -0.1425,-1.13462 1.581,-0.93785 1.5577,0.17784 13.4696,1.0326 14.3902,1.0326 0.1956,0 0.219,1.36292 0.052,3.02872 -0.167,1.6658 -0.3153,3.3577 -0.3295,3.75979 -0.024,0.66809 -0.6706,0.73107 -7.5098,0.73107 h -7.4839 z"
       id="path6770" />
    <path
       style="font-variation-settings:normal;opacity:1;fill:#826e9c;fill-opacity:1;stroke:#343030;stroke-width:4;stroke-linecap:butt;stroke-linejoin:miter;stroke-miterlimit:4;stroke-dasharray:none;stroke-dashoffset:0;stroke-opacity:1;paint-order:normal;stop-color:#000000;stop-opacity:1"
       d="m 1786.1166,448.39254 c -4.7063,-0.43798 -8.6777,-0.93107 -8.8254,-1.09574 -0.1476,-0.16468 -1.2167,-2.93126 -2.3757,-6.14797 l -2.1073,-5.84857 -0.2209,-8.02684 -0.2209,-8.02685 1.3364,-0.2294 c 0.735,-0.12616 3.5353,-0.56966 6.2229,-0.98554 l 4.8866,-0.75614 5.3041,5.77479 5.3042,5.77479 3.804,-0.002 3.8041,-0.002 7.0615,-5.42853 c 3.8838,-2.98569 7.1578,-5.42852 7.2756,-5.42852 0.4314,0 6.3415,3.82799 6.3344,4.10278 0,0.156 -1.4814,4.23142 -3.2829,9.05649 -3.2431,8.68591 -3.2875,8.77246 -4.4835,8.73394 -0.6644,-0.0214 -4.2385,-0.17804 -7.9425,-0.34811 l -6.7346,-0.30922 -2.8738,5.03629 c -1.5806,2.76996 -3.0617,5.01761 -3.2915,4.99478 -0.2298,-0.0228 -4.2684,-0.39987 -8.9748,-0.83786 z"
       id="path6809" />
    <path
       style="font-variation-settings:normal;opacity:1;fill:#826e9c;fill-opacity:1;stroke:#343030;stroke-width:4;stroke-linecap:butt;stroke-linejoin:miter;stroke-miterlimit:4;stroke-dasharray:none;stroke-dashoffset:0;stroke-opacity:1;stop-color:#000000;stop-opacity:1"
       d="m 1940.2487,678.76567 c -0.01,-0.18274 -0.5366,-3.93856 -1.1774,-8.34627 l -1.1651,-8.01403 3.3707,-5.24457 3.3706,-5.24456 3.352,-0.005 3.3519,-0.005 7.3575,5.98253 7.3575,5.98253 -6.6881,7.13876 -6.6881,7.13876 -4.8569,0.26235 c -2.6712,0.1443 -5.4678,0.35789 -6.2145,0.47466 -0.7467,0.11677 -1.3633,0.0628 -1.3701,-0.11993 z"
       id="path6848" />
    <path
       style="font-variation-settings:normal;opacity:1;fill:#826e9c;fill-opacity:1;stroke:#343030;stroke-width:4;stroke-linecap:butt;stroke-linejoin:miter;stroke-miterlimit:4;stroke-dasharray:none;stroke-dashoffset:0;stroke-opacity:1;stop-color:#000000;stop-opacity:1"
       d="m 1841.4621,828.1804 c -2.5274,-0.16138 -5.3571,-0.31734 -6.2882,-0.34657 l -1.693,-0.0532 0.5643,-5.53454 c 0.3104,-3.044 0.6963,-5.65705 0.8575,-5.8068 0.2894,-0.26881 13.6306,-5.76497 13.694,-5.6415 0.018,0.0351 -0.2031,3.44759 -0.4914,7.58336 -0.2882,4.13577 -0.5379,8.13055 -0.5549,8.87729 -0.023,1.03164 -0.2064,1.3406 -0.7619,1.28652 -0.4021,-0.0392 -2.7989,-0.20323 -5.3264,-0.36461 z"
       id="path6887" />
  </g>
</svg>
